<svg xmlns="http://www.w3.org/2000/svg" width="64" height="27" viewBox="0 0 64 27">
  <path fill="#fff" fill-rule="evenodd" d="M18.403 20.862c-1.065 1.39-2.426 2.858-4.197 3.99-1.833 1.155-3.88 2.086-6.301 2.086-2.236 0-4.134-1.192-5.184-2.16C1.164 23.323.34 21.163.097 19.188-.667 12.966 3.137 4.807 9.032 1.23 10.385.41 11.9 0 13.278 0c2.832 0 4.946 2.018 5.241 4.428.267 2.172-.606 4.048-3.024 5.264-1.236.621-1.847.592-2.04.296-.129-.198-.056-.533.193-.74 2.274-1.893 2.317-3.445 2.049-5.634-.173-1.408-1.104-2.31-2.147-2.31-4.471 0-10.883 9.986-9.99 17.251.347 2.832 2.09 6.11 5.668 6.11 1.192 0 2.455-.335 3.578-.894 2.314-1.177 3.441-2.065 4.792-3.83a3.959 3.959 0 0 1-.585-1.634c-.416-3.39 2.51-7.787 6.906-7.787 1.862 0 3.407.745 3.59 2.236.229 1.862-1.365 2.235-1.96 2.235-.522 0-1.36-.15-1.42-.634-.025-.207.148-.285.357-.378.316-.142.712-.32.625-1.038-.092-.744-.87-1.005-1.614-1.005-2.683 0-4.163 3.726-3.88 6.036.128 1.043.666 2.086 1.635 2.086.783 0 1.912-1.117 2.344-2.757.273-1.118 1.336-1.863 2.119-1.863.41 0 .693.186.744.596.018.149.004.335-.043.559-.025.133-.071.352-.125.607v.003c-.141.668-.333 1.579-.322 1.82.015.291.182.69.69.69.403 0 1.895-.803 3.27-2.037.426-2.192.94-4.837.98-5.05.166-.896.49-1.82 2.315-1.82.373 0 .657.187.712.634.018.15.003.336-.044.559l-.51 2.3c1.603-2.124 4.093-3.689 5.584-3.689.633 0 1.121.335 1.204 1.006.045.373-.064 1.006-.311 1.714-.53 1.453-1.127 3.635-1.522 5.514-.084.4.055 1.003.788 1.003.585 0 2.463-.713 3.98-2.706-.007-.241-.01-.485-.01-.73 0-1.565.111-2.832.41-3.763.297-.97 1.527-1.9 2.347-1.9.41 0 .708.223.708.67 0 .15-.037.336-.112.522-.559 1.639-.857 3.167-.857 4.695 0 .856.186 2.235.373 2.943v.004c.038.148.075.294.223.294.261 0 2.012-1.714 3.279-3.8-1.118-.708-1.752-2.012-1.752-3.615 0-2.682 1.603-4.061 3.168-4.061 1.23 0 2.348.894 2.348 2.683 0 1.117-.448 2.384-1.08 3.614 0 0 .26.037.37.037a2.89 2.89 0 0 0 1.55-.438c1.086-2.324 3.413-4.316 6.322-4.316 1.826 0 3.402.708 3.585 2.198.234 1.9-1.396 2.273-1.955 2.273-.56 0-1.398-.15-1.456-.634-.024-.19.15-.265.363-.357.328-.14.745-.32.66-1.021-.092-.746-.874-1.043-1.62-1.043-2.496 0-4.212 3.316-3.883 5.998.133 1.08.633 2.124 1.602 2.124.782 0 1.95-1.118 2.381-2.757.278-1.08 1.336-1.863 2.12-1.863.372 0 .693.186.747.633.029.224-.061.708-.48 2.46-.17.744-.203 1.378-.139 1.9.132 1.08.63 1.788 1.09 2.198.167.149.264.335.278.447.037.298-.192.559-.565.559-.112 0-.26 0-.382-.075-1.92-.782-2.715-2.086-2.94-3.316-.742.932-1.723 1.453-2.728 1.453-1.714 0-3.388-1.49-3.626-3.428a5.568 5.568 0 0 1 .047-1.598c-.634.349-1.3.54-1.9.54-.225 0-.411 0-.635-.036-1.676 2.42-3.428 4.098-4.769 4.843-.559.298-1.08.447-1.453.447-.298 0-.634-.074-.782-.335-.354-.597-.59-1.56-.722-2.689-1.764 1.916-4.23 2.887-5.388 2.887-1.342 0-2.075-.82-2.226-2.05-.05-.41-.036-.894.05-1.415.266-1.654.739-2.932 1.061-3.803.215-.582.363-.981.338-1.19-.019-.149-.103-.223-.215-.223-.857 0-3.867 3.092-4.324 5.141l-.357 1.64c-.232 1.155-1.37 1.9-2.151 1.9-.373 0-.657-.187-.707-.596a1.753 1.753 0 0 1 .043-.56l.19-.975c-1.63 1.217-3.392 2.04-4.216 2.04-1.118 0-1.75-.596-1.971-1.49-.738.97-1.717 1.49-2.76 1.49-.793 0-1.567-.31-2.194-.835zm32.106-6.948c-.67-.707-1.192-1.788-1.192-2.831 0-.56.186-1.23.67-1.23.41 0 .932.596.932 1.938 0 .708-.149 1.415-.41 2.123z" clip-rule="evenodd"/>
</svg>
